<svg width="1200" height="900" viewBox="0 0 1200 900" fill="none" xmlns="http://www.w3.org/2000/svg">
  <rect width="1200" height="900" rx="48" fill="#F3F4D6"/>
  <path d="M0 625C171.553 568.059 289.994 554.835 421 587C529.176 613.56 616.447 677.466 740 677.466C895.586 677.466 980.859 553.77 1200 566V900H0V625Z" fill="#CBDC93"/>
  <path d="M0 704C133.624 638.705 286.718 635.992 387.5 664C500.5 695.4 585.969 775.717 711 775.717C849.402 775.717 968.414 675.984 1200 691V900H0V704Z" fill="#8CB369"/>
  <circle cx="935" cy="211" r="72" fill="#F4B942"/>
  <path d="M255 490C255 408.262 321.262 342 403 342H591C672.738 342 739 408.262 739 490V506H255V490Z" fill="#2F5D50"/>
  <path d="M365 311C365 289.461 382.461 272 404 272H592C613.539 272 631 289.461 631 311V342H365V311Z" fill="#1E4034"/>
  <path d="M474 242C474 213.281 497.281 190 526 190C554.719 190 578 213.281 578 242V342H474V242Z" fill="#8CB369"/>
  <text x="88" y="806" fill="#183F26" font-family="serif" font-size="64" font-weight="700">Uzhavan Market</text>
</svg>
